<?xml version="1.0" standalone="no"?>
<!DOCTYPE svg PUBLIC "-//W3C//DTD SVG 20010904//EN"
 "http://www.w3.org/TR/2001/REC-SVG-20010904/DTD/svg10.dtd">
<svg version="1.0" xmlns="http://www.w3.org/2000/svg"
 width="1273.000000pt" height="1273.000000pt" viewBox="0 0 1273.000000 1273.000000"
 preserveAspectRatio="xMidYMid meet">
<metadata>
Created by potrace 1.11, written by Peter Selinger 2001-2013
</metadata>
<g transform="translate(0.000000,1273.000000) scale(0.100000,-0.100000)"
fill="#000000" stroke="none">
<path d="M4934 12185 c-34 -7 -113 -37 -175 -67 l-114 -53 -115 -2 c-124 -1
-182 -15 -254 -61 -46 -29 -146 -120 -146 -134 0 -10 -118 -173 -147 -203 -11
-11 -36 -33 -56 -48 -50 -38 -50 -71 2 -121 141 -138 111 -350 -59 -400 -99
-30 -173 -18 -207 33 -15 22 -18 49 -18 171 l0 145 -30 -3 c-56 -6 -130 -35
-275 -108 -80 -40 -156 -76 -170 -79 -25 -6 -25 -8 -22 -75 5 -86 -10 -131
-61 -187 -49 -53 -129 -113 -151 -113 -37 0 -107 -39 -204 -113 -135 -103
-188 -129 -274 -135 l-68 -5 -30 -48 c-37 -57 -68 -79 -113 -79 -39 0 -70 25
-112 88 -15 23 -33 42 -40 42 -16 0 -756 -914 -797 -984 -50 -84 -66 -103
-104 -121 -47 -22 -90 -14 -147 30 l-45 34 -76 -187 c-42 -103 -76 -191 -76
-197 0 -15 84 -68 181 -114 47 -23 101 -57 119 -76 19 -19 42 -35 51 -35 23 0
83 71 115 135 13 28 35 107 48 176 36 185 53 242 102 348 88 187 136 238 219
229 24 -3 62 -15 85 -27 22 -11 48 -21 57 -21 29 0 344 101 612 197 594 212
684 243 688 239 11 -11 -91 -80 -195 -132 -91 -45 -131 -73 -179 -120 l-63
-62 0 -94 c-1 -142 -45 -218 -130 -218 -54 0 -74 27 -80 110 l-5 69 -83 -36
c-45 -20 -101 -52 -124 -72 l-41 -37 21 -30 c14 -17 28 -61 36 -111 26 -147
54 -173 184 -173 95 0 212 28 290 70 32 17 92 62 135 100 90 81 105 90 147 90
44 0 82 -42 110 -119 14 -38 33 -69 47 -78 22 -15 27 -15 57 -1 18 9 52 40 77
68 100 119 129 147 234 225 156 115 213 185 230 278 14 73 172 177 327 216
l78 20 54 -25 c67 -30 113 -39 162 -30 51 10 129 91 178 186 34 65 46 79 95
108 31 18 114 77 184 132 207 161 294 200 444 200 152 0 290 -48 344 -120 72
-95 96 -115 136 -113 21 0 71 17 112 36 100 49 169 64 221 48 55 -16 104 -68
130 -138 48 -128 85 -154 292 -207 170 -44 359 -66 566 -66 149 0 164 2 182
20 27 27 27 89 -1 124 -14 18 -115 74 -288 160 -392 196 -562 260 -791 295
-114 18 -173 39 -310 109 -53 27 -86 63 -135 144 -49 80 -132 85 -368 20 -78
-22 -185 -50 -237 -62 -76 -18 -255 -80 -474 -166 -19 -7 -19 -7 0 25 29 50
133 142 199 177 33 18 111 51 174 73 62 23 134 52 160 65 78 40 191 77 296 97
114 23 379 37 532 29 150 -8 174 -39 112 -149 -47 -83 -52 -108 -27 -133 16
-16 28 -19 57 -14 201 32 341 8 498 -85 31 -19 96 -73 143 -120 74 -73 93 -87
130 -93 23 -4 44 -5 45 -4 2 2 -11 47 -27 101 -35 113 -33 151 12 195 49 49
93 65 174 60 86 -4 187 -48 235 -104 47 -53 43 -91 -19 -189 -28 -44 -53 -90
-57 -103 -14 -55 54 -140 150 -187 66 -32 110 -44 294 -77 28 -5 67 -19 85
-31 30 -21 32 -27 33 -78 2 -93 20 -113 194 -222 33 -20 79 -44 103 -53 107
-37 113 -66 31 -147 -52 -51 -56 -58 -45 -81 16 -36 87 -73 171 -91 216 -45
381 -158 584 -400 192 -228 252 -319 298 -452 43 -123 50 -188 55 -488 l5
-290 -57 138 c-66 163 -78 245 -50 339 9 31 16 66 16 78 0 12 -30 55 -73 103
-40 45 -138 170 -218 277 -163 217 -250 311 -355 380 -86 56 -173 86 -296 100
-204 24 -362 79 -711 246 -370 177 -511 225 -725 245 -64 6 -125 15 -137 21
-11 6 -55 37 -98 69 -99 74 -132 84 -250 69 -175 -21 -305 -65 -572 -193 -170
-82 -196 -92 -245 -91 -67 0 -95 14 -185 95 -153 137 -290 152 -485 54 -39
-20 -122 -57 -183 -82 -221 -90 -292 -132 -421 -250 -168 -153 -322 -241 -514
-293 -131 -35 -175 -55 -219 -102 -38 -39 -58 -85 -68 -153 -11 -70 -56 -112
-155 -144 -41 -13 -92 -32 -112 -42 -31 -16 -60 -19 -181 -19 -222 0 -361 -30
-464 -102 -25 -17 -120 -94 -212 -171 -91 -77 -188 -159 -216 -182 -80 -66
-205 -159 -280 -208 -108 -69 -109 -71 -116 -200 -6 -110 -7 -117 -109 -402
-56 -159 -134 -366 -172 -460 -136 -333 -123 -268 -123 -600 -1 -332 -2 -343
-100 -686 -31 -107 -64 -232 -75 -279 -64 -289 -21 -518 175 -935 48 -103 57
-115 79 -115 l26 0 0 283 1 282 20 -50 c45 -115 118 -345 130 -410 15 -84 17
-187 5 -315 -10 -110 -7 -119 89 -259 30 -44 59 -98 65 -121 6 -24 20 -44 33
-51 53 -27 134 -98 173 -152 106 -143 126 -324 63 -569 -38 -152 -24 -216 82
-358 127 -170 189 -293 230 -455 24 -92 46 -133 92 -167 30 -23 181 -108 191
-108 10 0 26 67 26 114 0 64 -11 102 -67 244 -24 63 -43 115 -41 117 2 2 33
-35 70 -83 349 -459 871 -849 1548 -1157 132 -60 156 -74 149 -87 -15 -27 -68
-39 -129 -29 -58 9 -97 1 -117 -25 -9 -12 -4 -28 25 -76 35 -60 39 -63 147
-114 60 -29 193 -87 295 -129 343 -143 496 -226 658 -358 l82 -67 26 23 c52
45 129 57 248 37 50 -8 64 -7 95 9 94 49 110 112 48 197 -76 105 -91 172 -65
296 9 42 9 64 2 76 -15 23 -71 28 -93 8 -9 -8 -39 -25 -66 -37 -75 -34 -145
-29 -295 19 l-125 40 -10 -61 c-12 -71 -26 -99 -57 -121 -70 -49 -280 25 -338
119 -27 44 -36 127 -18 180 11 35 17 40 47 43 21 2 56 -6 91 -22 92 -41 117
-34 106 30 -10 48 -57 91 -165 149 -81 44 -97 56 -122 100 -38 65 -37 96 2
129 51 43 92 36 174 -29 55 -44 76 -55 105 -55 20 0 72 -13 117 -29 135 -50
237 -64 408 -58 161 5 269 27 433 87 98 36 306 127 424 186 48 24 97 44 108
44 27 0 54 -61 46 -105 -4 -17 -74 -142 -156 -278 l-150 -248 26 -52 c15 -29
28 -53 29 -55 2 -2 20 4 41 13 82 34 274 76 507 110 321 47 410 68 428 101 18
34 85 82 132 95 61 16 153 -6 219 -52 35 -25 82 -24 192 5 196 52 302 43 326
-28 19 -58 -21 -104 -115 -132 -59 -17 -76 -32 -99 -89 -21 -49 -44 -75 -67
-75 -11 0 -22 -13 -29 -37 -42 -131 -142 -258 -238 -302 -29 -14 -52 -28 -52
-32 0 -12 96 -29 163 -29 84 0 175 21 352 80 82 27 197 59 254 70 125 24 184
50 216 98 14 20 25 40 25 44 0 11 119 121 158 146 46 29 106 25 158 -9 l36
-24 63 60 c34 33 105 86 156 117 52 32 101 62 109 67 10 7 -23 10 -102 10
-106 1 -124 -2 -198 -29 -114 -42 -160 -40 -217 13 -20 18 -31 19 -97 14 -87
-8 -129 4 -145 39 -27 60 -10 87 87 139 31 17 62 41 68 54 7 13 33 45 58 72
126 134 200 144 300 40 l39 -40 63 23 c158 58 331 193 458 359 87 115 176 267
176 302 0 70 -89 100 -153 51 -18 -14 -98 -56 -179 -95 -156 -74 -224 -125
-258 -192 -11 -20 -17 -39 -15 -41 3 -3 -11 -24 -31 -47 -40 -46 -102 -81
-179 -100 -27 -7 -76 -24 -108 -38 -73 -31 -149 -39 -228 -24 -82 17 -318 90
-346 109 -64 41 -83 134 -44 211 12 22 24 60 27 84 5 36 2 47 -17 69 -30 32
-185 88 -245 88 -54 0 -89 -29 -137 -115 -38 -70 -84 -105 -137 -105 -20 0
-117 9 -216 20 -220 24 -641 60 -703 60 -57 0 -113 15 -141 38 -21 17 -22 20
-7 48 9 17 22 36 30 42 21 18 566 82 766 91 176 7 178 7 232 39 30 18 75 43
102 54 63 29 62 52 -3 117 -58 58 -63 85 -24 124 35 36 79 42 145 22 39 -12
108 -18 249 -22 201 -5 242 -12 363 -57 76 -29 150 -33 200 -13 38 16 101 83
124 132 16 34 18 35 75 35 97 0 193 19 379 75 97 29 225 63 285 75 251 50 424
166 566 380 57 87 128 220 128 241 0 22 49 76 97 107 26 17 77 38 113 48 36
10 76 27 89 38 13 12 74 84 136 161 62 77 178 204 258 283 84 83 165 173 192
215 27 40 96 137 155 217 59 80 124 171 144 203 53 83 136 256 136 284 0 45
15 22 34 -50 24 -96 32 -240 17 -319 -7 -35 -26 -103 -42 -151 -50 -146 -29
-186 71 -135 l45 23 82 245 c109 325 127 414 119 590 -3 74 -8 155 -12 180 -4
37 -1 51 18 80 23 34 31 38 152 76 111 34 181 121 230 284 55 183 57 297 10
443 -26 78 -27 96 -33 342 -7 287 -4 271 -82 369 -59 72 -102 157 -126 246
-19 71 -22 309 -6 405 5 28 7 61 5 74 -3 19 -8 22 -30 17 -15 -4 -60 -9 -99
-13 -89 -7 -113 6 -138 72 -14 35 -17 63 -12 126 3 44 7 82 9 85 2 2 36 6 75
10 l70 7 13 132 c13 140 7 204 -25 266 -16 29 -16 29 -80 23 -105 -11 -173 35
-221 151 -35 84 0 198 87 285 62 62 64 95 15 184 -19 34 -36 70 -38 81 -3 16
-11 10 -46 -36 -23 -31 -42 -60 -42 -66 0 -16 -79 -64 -115 -70 -32 -5 -36 -2
-65 43 -17 27 -33 60 -37 74 -14 59 -126 257 -249 441 -148 220 -164 248 -164
281 1 32 16 50 83 92 77 49 78 74 5 116 -46 26 -59 30 -104 24 -63 -7 -100 7
-174 69 -61 51 -72 49 -97 -12 -16 -37 -13 -58 23 -174 33 -106 32 -141 -5
-178 -55 -54 -96 -31 -191 107 -78 112 -202 238 -297 303 -167 112 -487 236
-727 282 -70 13 -106 43 -106 89 0 53 29 70 118 71 127 1 130 7 37 69 -218
143 -609 290 -771 290 -44 0 -70 -27 -85 -86 -16 -62 -52 -104 -90 -104 -41 0
-80 22 -169 93 -128 102 -180 110 -251 38 -34 -36 -44 -41 -84 -41 -55 0 -96
19 -124 59 -33 45 -37 85 -13 125 l20 34 -26 25 c-43 41 -115 67 -259 93 -162
30 -211 51 -284 125 -80 81 -108 94 -204 94 -72 -1 -88 -5 -157 -38 -168 -81
-280 -83 -364 -5 -24 22 -55 65 -70 96 -30 64 -102 139 -159 167 -35 17 -61
20 -196 20 -154 0 -157 1 -214 30 -81 42 -120 98 -120 173 0 32 4 68 8 80 8
22 7 23 -15 16 -38 -13 -244 -7 -378 10 -148 19 -282 19 -366 1z m343 -134
c60 -28 77 -65 71 -162 l-5 -78 41 -5 c23 -2 88 -10 145 -16 134 -15 297 -56
436 -111 107 -42 108 -44 75 -51 -19 -5 -135 -13 -257 -18 -122 -5 -244 -14
-270 -20 -108 -24 -109 -24 -152 -115 -77 -158 -148 -174 -291 -66 -51 38 -59
41 -121 41 -87 0 -183 -26 -364 -98 -142 -56 -220 -83 -274 -96 -20 -4 -11 9
41 62 36 37 110 123 165 192 134 167 222 243 325 280 34 13 39 19 57 79 30 99
82 159 160 187 55 20 168 17 218 -5z m-1423 -1161 c38 -14 57 -52 67 -137 6
-50 17 -88 30 -106 27 -37 17 -91 -27 -134 -43 -44 -82 -44 -143 1 -58 43
-159 148 -196 204 l-28 42 28 40 c29 42 75 76 123 90 38 12 116 12 146 0z
m4865 -30 c82 -41 151 -139 151 -213 0 -94 -144 -98 -259 -7 -57 45 -91 109
-91 168 0 37 4 45 33 63 39 25 105 21 166 -11z m697 -462 c89 -53 209 -146
209 -161 0 -7 -25 -25 -55 -40 -124 -64 -228 -3 -284 165 -9 26 -13 54 -10 63
11 28 67 17 140 -27z m93 -554 c35 -18 67 -45 97 -83 110 -140 113 -299 7
-437 -27 -36 -27 -36 -86 -29 -105 11 -185 42 -231 88 -55 56 -67 97 -73 250
l-5 127 38 37 c81 76 163 91 253 47z m-3477 -168 c332 -137 633 -166 990 -96
129 26 220 26 277 0 43 -20 159 -112 271 -214 91 -83 170 -176 216 -256 41
-69 43 -76 27 -87 -29 -22 -53 -15 -117 33 -110 84 -165 100 -223 64 -45 -27
-45 -74 -1 -137 17 -25 42 -80 55 -121 28 -88 21 -122 -29 -148 -39 -20 -78
-11 -136 34 -165 127 -215 162 -233 162 -11 0 -33 -15 -49 -34 -35 -40 -75
-57 -187 -81 -105 -23 -150 -49 -187 -108 -37 -60 -45 -130 -22 -191 32 -84
105 -99 215 -45 75 37 87 35 182 -28 55 -37 81 -47 122 -51 48 -3 57 0 117 40
59 39 71 43 125 43 73 0 132 -31 193 -101 32 -36 48 -69 77 -159 22 -67 60
-155 94 -217 32 -56 85 -151 118 -210 79 -141 113 -245 124 -377 10 -132 30
-173 148 -309 129 -149 188 -275 207 -443 6 -58 6 -59 -19 -59 -14 0 -43 15
-68 35 -23 20 -50 40 -60 46 -48 25 -119 -64 -119 -149 0 -23 14 -83 30 -133
17 -50 33 -123 36 -162 16 -192 -91 -457 -244 -605 -112 -108 -305 -223 -692
-414 -201 -99 -401 -201 -445 -228 -44 -26 -90 -51 -103 -55 -24 -7 -82 11
-82 25 0 4 55 47 123 96 257 185 398 297 475 379 83 87 136 176 130 216 -4 30
-62 69 -103 69 -51 0 -143 -54 -240 -140 -110 -98 -174 -145 -330 -239 -66
-39 -153 -97 -194 -127 -90 -66 -161 -90 -318 -105 -223 -22 -289 -4 -335 89
-21 44 -23 59 -23 227 l0 180 -29 53 c-45 81 -100 116 -229 146 -38 9 -81 23
-97 31 -74 38 -78 133 -12 266 23 46 48 104 57 128 38 110 3 201 -98 253 -58
29 -224 78 -268 78 -43 0 -53 -11 -62 -74 -4 -22 -22 -62 -40 -91 -58 -86 -77
-131 -77 -180 0 -57 10 -76 124 -245 100 -149 186 -242 268 -290 l53 -31 -60
6 c-188 19 -310 47 -398 91 -70 36 -169 106 -201 145 -25 29 -26 35 -20 107
12 147 -23 202 -202 313 -130 80 -178 123 -205 183 -40 89 -23 149 92 321 103
154 170 231 284 323 90 73 134 95 170 86 25 -6 95 -76 95 -94 0 -10 52 -40 69
-40 5 0 25 22 45 49 40 56 87 87 211 137 112 45 152 71 199 128 84 103 136
134 203 121 27 -5 54 -24 105 -76 108 -110 148 -114 251 -22 101 90 193 125
331 125 98 1 171 -15 247 -53 137 -68 179 -159 96 -209 -43 -27 -101 -25 -181
5 -124 47 -209 34 -416 -63 -126 -59 -165 -96 -156 -151 3 -20 18 -48 36 -65
45 -45 90 -42 169 11 83 56 143 68 241 49 140 -27 200 -65 200 -127 0 -16 -16
-60 -35 -98 -65 -127 -45 -176 103 -250 104 -52 172 -113 172 -154 0 -24 -10
-42 -72 -124 -41 -53 -120 -103 -164 -103 -39 0 -266 69 -331 101 -101 49
-138 113 -95 166 9 11 42 37 72 56 72 45 93 70 93 109 0 27 -11 42 -63 90
-107 99 -196 109 -331 37 -199 -106 -207 -224 -25 -354 96 -68 116 -111 96
-201 -36 -154 -31 -220 16 -250 33 -22 93 -12 161 26 29 17 61 30 71 30 11 0
38 -23 62 -51 73 -87 112 -85 212 14 110 107 164 98 260 -44 68 -100 105 -129
166 -129 52 0 82 15 187 91 44 31 107 67 139 80 69 25 102 57 116 109 18 65
-7 134 -89 250 -22 30 -42 67 -46 82 -10 40 27 73 101 88 116 23 138 32 180
74 46 45 64 93 64 169 0 57 -18 103 -65 167 -20 28 -47 87 -66 146 -25 78 -54
134 -135 264 -56 91 -124 195 -150 230 -93 128 -223 248 -339 316 -58 33 -181
146 -200 183 -7 14 -16 54 -20 88 -4 38 -16 76 -29 95 -30 46 -70 47 -177 7
-79 -29 -98 -32 -304 -44 -191 -11 -230 -16 -294 -38 -55 -20 -78 -23 -88 -15
-23 19 -16 103 13 161 97 191 233 305 394 330 109 16 168 36 205 68 32 28 35
36 35 86 0 51 -3 59 -38 93 -59 59 -136 73 -247 45 -32 -9 -117 -24 -189 -35
-202 -30 -249 -47 -335 -125 -86 -75 -161 -77 -191 -5 -19 45 4 87 77 142 68
52 117 120 139 194 18 64 12 103 -23 145 -35 41 -74 59 -127 59 -39 0 -52 -6
-94 -43 -72 -64 -108 -84 -258 -138 -207 -75 -277 -118 -344 -215 -22 -31 -89
-74 -117 -74 -52 0 -87 46 -113 148 -14 55 -48 79 -88 63 -15 -6 -135 -118
-268 -249 -195 -192 -253 -255 -302 -330 -34 -52 -63 -99 -65 -105 -2 -7 -8
-9 -12 -5 -14 14 -7 132 10 176 17 41 155 235 337 475 138 181 275 302 460
406 78 44 156 52 223 22 71 -32 118 -36 168 -17 51 19 83 50 140 137 52 79
110 124 182 140 49 11 64 10 146 -11 107 -27 158 -24 269 14 96 33 158 29 272
-18z m3993 -177 c22 -6 54 -26 72 -46 28 -29 33 -42 33 -81 0 -62 -26 -179
-45 -209 -40 -60 -144 -84 -185 -43 -21 21 -25 67 -21 245 3 103 7 114 44 130
39 17 51 18 102 4z m1095 -449 l95 -48 3 -109 c2 -59 -2 -164 -9 -233 -14
-151 -14 -319 0 -380 5 -24 8 -46 6 -48 -1 -2 -27 -6 -57 -9 l-54 -5 -53 58
c-109 122 -218 305 -287 486 -55 142 -44 240 34 290 108 71 181 70 322 -2z
m-7345 -342 c-12 -77 -42 -126 -133 -220 -103 -108 -170 -197 -270 -360 -184
-301 -219 -356 -265 -417 -61 -81 -67 -96 -67 -183 0 -222 -141 -611 -368
-1013 l-51 -90 -21 48 -21 47 30 178 c233 1352 239 1378 310 1450 44 44 79 61
163 78 113 24 150 51 182 134 44 112 117 177 331 295 77 42 144 81 150 86 5 5
15 9 23 9 11 0 12 -10 7 -42z m7710 -198 c29 -27 42 -81 49 -193 l6 -87 -32
-20 c-50 -30 -102 -35 -141 -13 -35 20 -91 115 -102 170 -8 42 9 105 34 127
52 47 145 55 186 16z m-1840 -784 c25 -40 58 -109 74 -153 55 -149 63 -206 68
-503 3 -151 3 -273 0 -270 -5 6 -267 952 -267 967 0 8 44 28 72 32 4 1 27 -32
53 -73z m1904 -790 c42 -22 59 -55 75 -152 21 -122 10 -248 -23 -275 -47 -38
-152 -15 -193 41 -21 30 -52 254 -43 312 4 20 17 48 30 62 20 21 33 26 75 26
28 0 64 -7 79 -14z m-1602 -584 c129 -195 181 -360 203 -632 15 -197 35 -318
70 -422 28 -84 29 -90 19 -175 -29 -236 -135 -458 -335 -704 -29 -36 -135
-153 -235 -260 -100 -107 -213 -231 -251 -275 -62 -73 -77 -85 -131 -104 -83
-29 -177 -81 -353 -191 -182 -114 -209 -125 -319 -139 -182 -22 -338 -70 -456
-140 -36 -21 -111 -81 -167 -133 -117 -110 -188 -156 -293 -190 -105 -35 -180
-44 -519 -67 -303 -20 -442 -24 -519 -12 -42 7 -29 12 241 95 156 48 325 97
374 108 148 35 154 38 204 109 127 185 280 266 575 308 146 21 148 22 390 138
39 18 148 92 243 164 224 169 310 212 449 226 112 12 182 76 203 185 23 120
86 198 250 308 143 96 172 122 248 223 155 204 196 352 168 598 -8 69 -22 204
-31 300 -32 355 -64 540 -125 735 l-39 120 41 -45 c23 -25 65 -82 95 -128z
m-4547 -1132 c101 -101 304 -339 296 -348 -9 -8 -132 30 -179 56 -131 71 -192
156 -323 450 l-24 54 63 -53 c34 -30 109 -101 167 -159z m4297 -85 c-19 -267
-261 -535 -540 -600 -34 -8 -63 -13 -64 -11 -2 2 40 38 94 81 128 102 282 253
344 336 53 72 120 199 140 268 12 40 13 41 22 20 5 -13 7 -55 4 -94z m-1802
-1131 c-62 -54 -177 -123 -276 -165 -94 -41 -399 -139 -431 -139 -30 0 -76 28
-83 51 -5 16 5 33 47 78 84 90 104 101 181 101 79 0 134 11 287 55 136 40 197
53 265 54 l50 0 -40 -35z m1985 -72 c0 -17 -168 -198 -245 -265 -239 -207
-514 -339 -859 -411 -66 -14 -143 -37 -171 -51 -83 -40 -180 -29 -162 18 3 8
54 31 114 52 141 49 220 87 268 128 29 24 58 36 105 46 235 47 465 166 715
370 56 45 122 90 150 101 54 20 85 25 85 12z m-6129 -222 c21 -36 66 -135 99
-219 100 -252 108 -265 317 -489 146 -156 210 -239 244 -318 34 -75 99 -102
152 -62 92 71 184 88 269 50 24 -10 93 -58 153 -107 175 -140 255 -170 600
-220 104 -15 218 -39 270 -55 50 -16 109 -34 132 -40 65 -16 71 -39 23 -92
-50 -58 -109 -83 -264 -113 -123 -23 -202 -52 -229 -83 -8 -9 -17 -45 -20 -80
-7 -79 -42 -143 -93 -167 -77 -36 -256 -4 -322 58 -43 40 -54 73 -51 158 4 87
-4 103 -57 118 -21 6 -50 2 -109 -16 -64 -19 -96 -24 -160 -20 -147 7 -244 76
-384 271 -132 186 -216 257 -344 290 -30 8 -64 19 -75 25 -33 18 -71 70 -83
114 -6 23 -37 123 -70 222 -102 313 -113 394 -103 702 l7 212 29 -37 c17 -20
47 -66 69 -102z m-1186 -45 c27 -26 30 -56 26 -210 -4 -128 -29 -165 -112
-165 -53 0 -90 23 -116 73 -27 53 -15 196 23 269 30 58 135 78 179 33z m4338
-86 c27 -12 47 -47 47 -84 0 -34 -43 -80 -103 -110 -76 -37 -487 -163 -592
-181 -167 -30 -323 -6 -455 69 l-55 31 97 12 c125 16 204 38 446 125 206 74
477 147 549 148 23 1 53 -4 66 -10z m-3788 -104 l80 -49 49 -104 c72 -153 72
-224 -1 -296 -58 -58 -211 -91 -287 -62 -122 47 -214 245 -177 382 15 55 66
130 110 160 30 21 45 25 91 22 45 -3 70 -13 135 -53z m-39 -876 c42 -25 104
-126 104 -168 0 -24 -6 -34 -30 -46 -58 -30 -118 -8 -149 54 -16 31 -31 43
-76 61 -56 23 -85 50 -85 80 0 39 180 54 236 19z m705 -400 c78 -27 159 -121
159 -186 0 -49 -35 -68 -130 -68 -67 0 -82 3 -119 28 -72 48 -115 174 -74 219
19 21 109 25 164 7z m3619 -290 c129 -15 246 -46 328 -85 79 -38 89 -50 26
-32 -67 20 -246 13 -439 -16 -209 -32 -368 -35 -460 -11 -80 21 -168 62 -160
74 3 6 41 22 84 35 158 50 389 63 621 35z"/>
<path d="M8132 11944 c-37 -26 -23 -81 36 -137 24 -23 194 -96 224 -97 4 0 15
14 25 30 17 29 101 80 131 80 20 0 162 -110 162 -125 0 -24 90 -113 153 -153
34 -21 130 -72 212 -112 l150 -73 120 -122 c121 -123 152 -146 213 -160 45 -9
122 3 122 19 0 7 -14 44 -31 82 -23 51 -30 78 -26 105 7 54 -18 88 -127 168
-135 100 -153 147 -96 248 17 29 27 53 23 53 -76 3 -159 23 -184 44 -44 37
-292 88 -542 111 -76 7 -79 7 -107 -20 -28 -27 -30 -27 -151 -26 -137 2 -177
16 -214 72 -23 33 -57 38 -93 13z"/>
<path d="M1827 9303 c-3 -5 -24 -52 -46 -106 -64 -151 -67 -239 -10 -297 78
-78 201 -7 248 144 11 34 26 75 35 91 20 38 21 114 1 142 -9 12 -31 25 -50 29
-29 5 -38 2 -54 -17 l-20 -24 -40 23 c-42 23 -57 27 -64 15z"/>
<path d="M1442 8990 c-80 -40 -178 -133 -323 -305 -118 -138 -119 -141 -113
-180 4 -22 17 -60 29 -85 113 -226 208 -580 231 -860 l6 -85 30 35 c65 77 103
178 128 344 7 44 23 113 36 153 29 89 31 192 8 363 -22 164 -3 283 59 380 19
30 23 51 25 139 4 144 -8 154 -116 101z"/>
<path d="M813 8108 c-11 -13 -31 -43 -43 -68 -44 -90 -72 -100 -135 -50 -21
17 -39 30 -41 30 -2 0 -4 -115 -4 -256 l0 -255 37 30 c46 38 79 40 95 7 9 -21
4 -42 -30 -133 -61 -164 -87 -304 -112 -603 -6 -69 -24 -244 -40 -390 -63
-569 -66 -787 -14 -1092 10 -54 20 -98 24 -98 4 0 22 36 41 80 32 78 33 79 52
62 41 -37 47 -64 45 -209 -2 -114 1 -145 16 -181 20 -46 98 -122 126 -122 42
0 79 -82 80 -177 0 -35 5 -65 11 -69 7 -4 42 -6 78 -5 49 1 76 -3 106 -19 53
-27 62 -16 45 57 -12 54 -19 64 -114 158 -178 177 -214 276 -225 620 l-6 220
-35 75 c-31 66 -35 84 -35 155 0 68 5 89 30 140 25 52 29 72 30 155 2 99 18
151 50 164 35 13 99 5 151 -20 31 -14 57 -24 59 -23 1 2 17 48 34 102 68 214
32 300 -150 361 -132 45 -133 47 -138 246 -5 238 20 339 123 498 26 39 64 107
84 149 31 66 36 88 37 148 0 61 -4 78 -33 130 -38 71 -147 205 -165 205 -8 0
-23 -10 -34 -22z"/>
<path d="M1126 4303 l-78 -56 6 -41 c15 -97 84 -246 114 -246 5 0 23 37 41 83
18 45 46 112 62 148 16 36 29 74 29 83 0 28 -33 76 -51 76 -10 0 -23 2 -31 4
-7 2 -48 -21 -92 -51z"/>
<path d="M10935 3772 c-22 -11 -80 -54 -129 -96 -90 -77 -150 -106 -218 -106
-32 0 -36 -19 -13 -60 25 -44 18 -86 -23 -143 -22 -29 -55 -81 -75 -117 -53
-98 -84 -123 -157 -128 -38 -3 -65 0 -74 7 -18 15 -77 5 -131 -22 -84 -42
-118 -73 -175 -157 -46 -68 -63 -105 -84 -182 -28 -104 -32 -139 -16 -169 17
-31 80 -25 177 17 87 37 117 39 147 8 9 -8 16 -27 16 -42 0 -17 -72 -144 -199
-352 -133 -217 -195 -326 -185 -328 26 -6 135 61 182 113 48 52 102 149 102
182 0 10 11 35 25 55 33 49 99 75 158 61 32 -7 54 -5 92 8 163 54 307 174 432
359 38 56 223 384 219 388 -11 10 -70 -28 -122 -78 -63 -61 -96 -77 -139 -66
-39 10 -92 63 -121 122 -43 88 -28 165 53 276 60 82 173 120 256 84 55 -23 69
-47 79 -145 l10 -89 31 9 c16 4 32 11 36 15 3 3 6 103 6 222 l0 217 29 58 c27
53 28 59 13 74 -25 26 -152 29 -202 5z"/>
<path d="M1509 3207 c-103 -68 -87 -212 43 -409 73 -110 98 -170 107 -260 l6
-68 48 32 c65 42 129 48 176 16 47 -32 130 -176 171 -295 44 -129 62 -164 105
-201 43 -38 81 -50 100 -31 36 38 17 94 -84 249 -109 165 -200 350 -251 513
-63 197 -92 246 -212 357 -141 132 -150 136 -209 97z"/>
<path d="M2840 1486 c0 -103 1 -106 23 -106 31 0 72 -27 158 -105 202 -181
483 -330 719 -380 108 -23 120 -21 120 15 0 17 -9 48 -19 68 -19 38 -94 118
-149 159 -16 12 -46 52 -68 88 -49 85 -151 181 -234 221 -90 44 -171 67 -356
104 -87 17 -167 33 -176 36 -16 5 -18 -4 -18 -100z"/>
<path d="M6964 940 c-11 -4 -47 -37 -79 -72 l-59 -65 -50 20 c-110 42 -270 30
-389 -29 -85 -42 -177 -107 -177 -126 0 -31 59 -87 103 -99 36 -10 53 -8 122
12 97 29 178 29 259 0 120 -42 215 -16 216 59 0 14 -15 51 -34 82 l-34 56 50
7 c27 4 53 3 57 -1 4 -5 15 -35 25 -66 29 -97 60 -103 158 -31 l49 36 -20 21
c-11 12 -34 49 -51 83 -30 60 -89 124 -113 122 -7 0 -21 -4 -33 -9z"/>
</g>
</svg>
